<svg width="58" height="19" viewBox="0 0 58 19" fill="none" xmlns="http://www.w3.org/2000/svg">
<path d="M10.032 18.288C8.736 18.288 7.528 18.08 6.408 17.664C5.304 17.232 4.344 16.624 3.528 15.84C2.712 15.056 2.072 14.136 1.608 13.08C1.16 12.024 0.936 10.864 0.936 9.6C0.936 8.336 1.16 7.176 1.608 6.12C2.072 5.064 2.712 4.144 3.528 3.36C4.36 2.576 5.328 1.976 6.432 1.56C7.536 1.128 8.744 0.912 10.056 0.912C11.512 0.912 12.824 1.168 13.992 1.68C15.176 2.176 16.168 2.912 16.968 3.888L14.472 6.192C13.896 5.536 13.256 5.048 12.552 4.728C11.848 4.392 11.08 4.224 10.248 4.224C9.464 4.224 8.744 4.352 8.088 4.608C7.432 4.864 6.864 5.232 6.384 5.712C5.904 6.192 5.528 6.76 5.256 7.416C5 8.072 4.872 8.8 4.872 9.6C4.872 10.4 5 11.128 5.256 11.784C5.528 12.44 5.904 13.008 6.384 13.488C6.864 13.968 7.432 14.336 8.088 14.592C8.744 14.848 9.464 14.976 10.248 14.976C11.08 14.976 11.848 14.816 12.552 14.496C13.256 14.16 13.896 13.656 14.472 12.984L16.968 15.288C16.168 16.264 15.176 17.008 13.992 17.52C12.824 18.032 11.504 18.288 10.032 18.288ZM20.0936 18V1.2H27.3656C28.8696 1.2 30.1656 1.448 31.2536 1.944C32.3416 2.424 33.1816 3.12 33.7736 4.032C34.3656 4.944 34.6616 6.032 34.6616 7.296C34.6616 8.544 34.3656 9.624 33.7736 10.536C33.1816 11.432 32.3416 12.12 31.2536 12.6C30.1656 13.08 28.8696 13.32 27.3656 13.32H22.2536L23.9816 11.616V18H20.0936ZM30.7736 18L26.5736 11.904H30.7256L34.9736 18H30.7736ZM23.9816 12.048L22.2536 10.224H27.1496C28.3496 10.224 29.2456 9.968 29.8376 9.456C30.4296 8.928 30.7256 8.208 30.7256 7.296C30.7256 6.368 30.4296 5.648 29.8376 5.136C29.2456 4.624 28.3496 4.368 27.1496 4.368H22.2536L23.9816 2.52V12.048ZM38.242 18V1.2H41.458L48.61 13.056H46.906L53.938 1.2H57.13L57.178 18H53.53L53.506 6.792H54.178L48.562 16.224H46.81L41.074 6.792H41.89V18H38.242Z" fill="#F07F2E"/>
</svg>
